<svg width="25" height="25" viewBox="0 0 25 25" fill="none" xmlns="http://www.w3.org/2000/svg">
<g clip-path="url(#clip0_9401_23)">
<path d="M22.6608 0.5625H1.37046C0.59627 0.5625 0.015625 1.18185 0.015625 1.91734V23.2077C0.015625 23.9819 0.63498 24.5625 1.37046 24.5625H12.8285V15.2335H9.73175V11.6335H12.8285V8.9625C12.8285 5.86573 14.6866 4.1625 17.4737 4.1625C18.4027 4.1625 19.3318 4.20121 20.2608 4.31734V7.53024H18.4027C16.9318 7.53024 16.6221 8.22702 16.6221 9.27218V11.556H20.1447L19.6414 15.1948H16.5447V24.4077H22.6608C23.435 24.4077 24.0156 23.827 24.0156 23.0528V1.91734C23.9769 1.14315 23.3576 0.5625 22.6608 0.5625Z" fill="white"/>
</g>
<defs>
<clipPath id="clip0_9401_23">
<rect width="24" height="24" fill="white" transform="translate(0.015625 0.5625)"/>
</clipPath>
</defs>
</svg>
