<svg width="25" height="25" viewBox="0 0 25 25" fill="none" xmlns="http://www.w3.org/2000/svg">
<g clip-path="url(#clip0_9401_28)">
<path d="M13.91 0.563477C15.5573 0.566708 16.0278 0.580558 17.0677 0.639912C18.3853 0.678622 19.2379 0.87217 20.013 1.18185C20.7881 1.49153 21.4469 1.87862 22.1058 2.53669C22.7646 3.19475 23.1909 3.85282 23.4622 4.66572C23.7335 5.47862 23.966 6.36894 24.0048 7.60765C24.0435 8.92378 23.966 9.34959 23.966 12.6399L23.9657 14.2958C23.9656 14.3717 23.9656 14.4453 23.9655 14.5166L23.965 14.9187C23.9625 16.2391 23.9544 16.6889 23.9272 17.556C23.8885 18.8722 23.656 19.7238 23.3847 20.498C23.1134 21.2722 22.6871 21.9689 22.0283 22.627C21.3694 23.2851 20.7106 23.7109 19.8968 23.9818C19.0829 24.2528 18.2691 24.4851 16.9514 24.5238C16.6 24.5341 16.3175 24.5417 16.0297 24.5472L15.8117 24.551C15.4428 24.5568 15.0366 24.5596 14.4481 24.5611L14.072 24.5618C14.0053 24.5618 13.9365 24.5619 13.8654 24.562L10.3364 24.5619C8.51839 24.5594 8.08433 24.547 7.03021 24.4851C5.71255 24.4464 4.85994 24.2141 4.08485 23.9431C3.30976 23.6722 2.61217 23.2464 1.95334 22.5883C1.29451 21.9302 0.868211 21.2722 0.596928 20.4593C0.325645 19.6464 0.0931174 18.8335 0.0543627 17.5173C0.0466118 17.2541 0.040411 17.0296 0.0354504 16.8125L0.0289009 16.4885C0.022571 16.1261 0.0192553 15.7408 0.0175185 15.188L0.0166544 14.835C0.0165381 14.7725 0.0164348 14.7079 0.0163429 14.6413L0.0161133 11.9425C0.0207753 9.22142 0.0569464 8.83604 0.0931174 7.60765C0.131872 6.29153 0.325645 5.43991 0.635683 4.66572C0.906966 3.85282 1.33327 3.19475 1.9921 2.53669C2.65093 1.87862 3.30976 1.41411 4.1236 1.14314C4.93745 0.87217 5.7513 0.639912 7.06896 0.601203C7.99132 0.574106 8.43894 0.565977 9.75439 0.563538L13.91 0.563477ZM14.1079 2.76968H10.0287C9.17523 2.77087 8.66862 2.774 8.20932 2.78222L7.9996 2.78639C7.7563 2.7917 7.51335 2.79862 7.22398 2.80765C6.02258 2.84636 5.40251 3.07862 4.97621 3.23346C4.43364 3.46572 4.0461 3.69798 3.61979 4.12378C3.23225 4.51088 2.96096 4.93669 2.72844 5.47862C2.57342 5.94314 2.34089 6.56249 2.30213 7.72378C2.29309 8.01282 2.28616 8.25548 2.28084 8.4985L2.27667 8.70798C2.26908 9.13146 2.26582 9.5952 2.26443 10.3346L2.26369 10.9444C2.26364 11.0188 2.26359 11.0954 2.26356 11.1745L2.26338 17.3625C2.30213 18.5625 2.53466 19.1818 2.68968 19.6077C2.96096 20.1496 3.19349 20.5367 3.61979 20.9625C4.00734 21.3883 4.43364 21.6593 4.97621 21.8915C5.44126 22.0464 6.06134 22.2786 7.22398 22.3173C8.07925 22.344 8.54744 22.3523 9.79807 22.3549L10.4176 22.3557C10.4932 22.3558 10.5712 22.3558 10.6517 22.3558L16.8739 22.356C18.0753 22.3173 18.6954 22.0851 19.1217 21.9302C19.6642 21.6593 20.0518 21.427 20.4781 21.0012C20.9044 20.6141 21.1757 20.1883 21.4082 19.6464C21.5632 19.1818 21.7957 18.5625 21.8345 17.4012C21.8422 17.1535 21.85 16.9398 21.8574 16.7308L21.8648 16.5222C21.8912 15.7551 21.912 14.9186 21.912 12.5625L21.9117 10.9444C21.9116 10.8701 21.9116 10.7981 21.9115 10.7283L21.911 10.3346C21.9085 9.04069 21.9004 8.59088 21.8732 7.72378C21.8345 6.52378 21.602 5.90443 21.4469 5.47862C21.1757 4.93669 20.9431 4.54959 20.5168 4.12378C20.1293 3.73669 19.703 3.46572 19.1604 3.23346C18.6954 3.07862 18.0753 2.84636 16.9126 2.80765C16.6233 2.79862 16.3803 2.7917 16.137 2.78639L15.9273 2.78222C15.468 2.774 14.9614 2.77087 14.1079 2.76968ZM12.0296 6.40765C15.4787 6.40765 18.2303 9.11733 18.2303 12.5625C18.2303 16.0077 15.4012 18.7173 12.0296 18.7173C8.6579 18.7173 5.86757 16.0077 5.86757 12.5625C5.86757 9.19475 8.58039 6.40765 12.0296 6.40765ZM12.0296 8.53669C9.82054 8.53669 7.99907 10.356 7.99907 12.5625C7.99907 14.7689 9.78179 16.5883 12.0296 16.5883C14.2773 16.5883 16.06 14.8077 16.06 12.5625C16.06 10.3173 14.2773 8.53669 12.0296 8.53669ZM18.5016 4.70443C19.2935 4.70443 19.9355 5.34567 19.9355 6.13669C19.9355 6.9277 19.2935 7.56894 18.5016 7.56894C17.7097 7.56894 17.0677 6.9277 17.0677 6.13669C17.0677 5.34567 17.7097 4.70443 18.5016 4.70443Z" fill="white"/>
</g>
<defs>
<clipPath id="clip0_9401_28">
<rect width="24" height="24" fill="white" transform="translate(0.015625 0.5625)"/>
</clipPath>
</defs>
</svg>
