<svg width="25" height="25" viewBox="0 0 25 25" fill="none" xmlns="http://www.w3.org/2000/svg">
<path d="M22.338 0.5625H1.76564C0.793409 0.5625 0.015625 1.33669 0.015625 2.30444V22.8206C0.015625 23.7496 0.793409 24.5625 1.76564 24.5625H22.2602C23.2325 24.5625 24.0103 23.7883 24.0103 22.8206V2.26573C24.088 1.33669 23.3103 0.5625 22.338 0.5625ZM7.13235 20.9625H3.59343V9.54315H7.13235V20.9625ZM5.34344 7.95605C4.17677 7.95605 3.28232 7.02702 3.28232 5.90444C3.28232 4.78185 4.21566 3.85282 5.34344 3.85282C6.47123 3.85282 7.40457 4.78185 7.40457 5.90444C7.40457 7.02702 6.54901 7.95605 5.34344 7.95605ZM20.5491 20.9625H17.0102V15.427C17.0102 14.1109 16.9713 12.369 15.1435 12.369C13.2768 12.369 13.0046 13.8399 13.0046 15.3109V20.9625H9.4657V9.54315H12.9268V11.1302H12.9657C13.4713 10.2012 14.5991 9.27218 16.3491 9.27218C19.9658 9.27218 20.6269 11.5948 20.6269 14.769V20.9625H20.5491Z" fill="white"/>
</svg>
