<svg width="25" height="25" viewBox="0 0 25 25" fill="none" xmlns="http://www.w3.org/2000/svg">
<g clip-path="url(#clip0_9401_33)">
<path d="M7.48659 22.727C16.6221 22.727 21.5769 15.1786 21.5769 8.63669C21.5769 8.48186 21.5769 8.21089 21.5382 7.97863C22.5059 7.28185 23.3576 6.39153 24.0156 5.42379C23.0866 5.8496 22.1576 6.08185 21.1898 6.19798C22.235 5.57863 23.0092 4.61089 23.3576 3.4496C22.3898 3.99153 21.3834 4.41734 20.1834 4.6496C19.2543 3.68185 18.0156 3.0625 16.5834 3.0625C13.835 3.0625 11.5898 5.30766 11.5898 8.05605C11.5898 8.44315 11.6285 8.83024 11.7059 9.21734C7.71885 8.94637 4.08014 6.97218 1.60272 3.99153C1.17692 4.76573 0.944657 5.57863 0.944657 6.46895C0.944657 8.21089 1.83498 9.68185 3.18982 10.5722C2.37692 10.5335 1.60272 10.3012 0.944657 9.95282C0.944657 9.99153 0.944657 9.99153 0.944657 9.99153C0.944657 12.3528 2.64788 14.4044 4.89304 14.869C4.46724 14.9851 4.00272 15.0238 3.65433 15.0238C3.34466 15.0238 2.99627 14.9851 2.7253 14.9077C3.38337 16.8819 5.20272 18.3141 7.37046 18.3528C5.66724 19.669 3.53821 20.4819 1.25433 20.4819C0.789819 20.5593 0.402722 20.4819 0.015625 20.4431C2.10595 21.9141 4.6995 22.727 7.48659 22.727Z" fill="white"/>
</g>
<defs>
<clipPath id="clip0_9401_33">
<rect width="24" height="24" fill="white" transform="translate(0.015625 0.5625)"/>
</clipPath>
</defs>
</svg>
