<svg width="28" height="28" viewBox="0 0 28 28" fill="none" xmlns="http://www.w3.org/2000/svg">
<path d="M25.5267 3.98777H9.24C8.49333 2.3229 6.81333 1.16675 4.85333 1.16675C2.14667 1.21299 0 3.34032 0 5.97636V22.0238C0 24.6598 2.14667 26.8334 4.85333 26.8334H4.9H25.5267C26.9267 26.8334 28 25.7235 28 24.3824V6.48507C28 5.09768 26.88 3.98777 25.5267 3.98777ZM0.933333 5.97636C0.933333 3.84903 2.66 2.09167 4.85333 2.09167C7.04667 2.09167 8.77333 3.80278 8.77333 5.97636V19.2028C7.88667 18.0004 6.48667 17.2142 4.85333 17.2142C3.26667 17.2142 1.82 18.0004 0.933333 19.2028V5.97636ZM0.933333 22.07C0.933333 19.9427 2.66 18.1854 4.85333 18.1854C7.04667 18.1854 8.77333 19.8965 8.77333 22.07C8.77333 24.2436 7.04667 25.9547 4.85333 25.9547C2.66 25.9547 0.933333 24.1974 0.933333 22.07ZM27.0667 24.3824C27.0667 25.2148 26.3667 25.9085 25.5267 25.9085H7.7C8.91333 25.0298 9.70667 23.6424 9.70667 22.0238V5.97636C9.70667 5.60639 9.66 5.23642 9.56667 4.91269H25.5267C26.3667 4.91269 27.0667 5.60639 27.0667 6.48507V24.3824Z" fill="white"/>
</svg>
